<?xml version="1.0" encoding="UTF-8" standalone="no"?>
<!-- Created with Inkscape (http://www.inkscape.org/) by Masrupilami -->
<svg xmlns:svg="http://www.w3.org/2000/svg" xmlns="http://www.w3.org/2000/svg" version="1.0" width="1024" height="103" viewBox="0 0 393.62314 39.636623" id="svg4242">
  <defs id="defs4244"/>
  <g transform="translate(217.6687,18.38974)" id="layer1">
    <path d="M -211.08808,-14.864115 C -211.08433,-14.867865 -211.08183,-14.870365 -211.07808,-14.874115 C -211.06933,-14.881615 -211.06058,-14.891615 -211.05183,-14.899115 C -211.06308,-14.887865 -211.07558,-14.876615 -211.08808,-14.864115 z " style="fill:#ffffff;fill-opacity:1;fill-rule:nonzero;stroke:#ffffff;stroke-width:1.10124993;stroke-linecap:butt;stroke-linejoin:miter;stroke-miterlimit:4;stroke-dasharray:none;stroke-opacity:1" id="path9173"/>
    <path d="M -65.86308,11.895885 C -65.86308,11.893385 -65.86308,11.888385 -65.86308,11.884635 C -65.86433,11.879635 -65.86433,11.875885 -65.86558,11.870885 C -65.86433,11.878385 -65.86308,11.887135 -65.86308,11.895885 z " style="fill:#ffffff;fill-opacity:1;fill-rule:nonzero;stroke:#ffffff;stroke-width:1.10124993;stroke-linecap:butt;stroke-linejoin:miter;stroke-miterlimit:4;stroke-dasharray:none;stroke-opacity:1" id="path9175"/>
    <path d="M -63.79558,17.278385 C -63.79933,17.274635 -63.80308,17.270885 -63.80808,17.265885 C -63.81058,17.262135 -63.81433,17.258385 -63.81683,17.255885 C -63.81058,17.263385 -63.80308,17.272135 -63.79558,17.278385 z " style="fill:#ffffff;fill-opacity:1;fill-rule:nonzero;stroke:#ffffff;stroke-width:1.10124993;stroke-linecap:butt;stroke-linejoin:miter;stroke-miterlimit:4;stroke-dasharray:none;stroke-opacity:1" id="path9177"/>
    <path d="M 93.78192,15.628385 L 85.45067,3.1771351 L 92.79567,-4.6691149 C 93.46192,-5.3803649 93.35442,-6.3028649 92.96692,-7.1953649 C 92.57942,-8.0903649 91.98567,-8.7853649 91.01067,-8.7853649 L 80.15317,-8.7853649 C 79.42317,-8.7853649 78.73192,-8.4591149 78.26692,-7.8966149 L 77.20067,-6.6053649 L 77.20067,-15.394115 C 77.20067,-16.745365 76.10692,-17.839115 74.75567,-17.839115 L 65.62317,-17.839115 C 65.35317,-17.839115 65.09442,-17.794115 64.85067,-17.712865 C 64.61692,-17.787865 64.36817,-17.827865 64.11067,-17.827865 L 54.99192,-17.827865 C 53.64067,-17.827865 52.54567,-16.734115 52.54567,-15.382865 L 52.54567,-8.8453649 C 52.54567,-8.3741149 52.62442,-6.9691149 52.57442,-6.6328649 C 50.57567,-8.4816149 47.85317,-9.5791149 44.91192,-9.5791149 C 42.37942,-9.5791149 40.24817,-8.8128649 38.86192,-8.1378649 C 38.42692,-8.5391149 37.84817,-8.7853649 37.20942,-8.7853649 L 28.34567,-8.7853649 C 27.14192,-8.7853649 26.14317,-7.9166149 25.93942,-6.7716149 C 23.89442,-8.6353649 21.13817,-9.7641149 18.23692,-9.7641149 C 16.34317,-9.7641149 14.66067,-9.3116149 13.34067,-8.7841149 L 13.34067,-15.394115 C 13.34067,-16.745365 12.24567,-17.839115 10.89442,-17.839115 L 1.6681696,-17.839115 C 0.31816964,-17.839115 -0.77683036,-16.745365 -0.77683036,-15.394115 L -0.77683036,-5.8803649 C -4.8118304,-9.3566149 -9.4605804,-9.3591149 -11.01058,-9.3591149 C -15.82433,-9.3591149 -19.34558,-8.0616149 -22.42808,-5.1491149 C -22.43433,-5.1441149 -22.44058,-5.1378649 -22.44808,-5.1316149 C -23.03433,-4.5653649 -23.97933,-3.5091149 -24.82808,-1.9303649 C -25.53308,-3.2278649 -26.33183,-4.3128649 -27.12683,-5.0828649 C -27.14933,-5.1053649 -27.17183,-5.1253649 -27.19433,-5.1466149 C -28.69433,-6.4916149 -32.20308,-9.6403649 -38.00433,-9.6403649 C -41.86433,-9.6403649 -45.19058,-8.5628649 -47.89558,-6.4403649 C -47.91683,-7.7741149 -49.00183,-8.8453649 -50.33933,-8.8453649 L -51.85933,-8.8453649 L -51.85933,-13.390365 C -51.85933,-14.741615 -52.95433,-15.836615 -54.30558,-15.836615 L -63.43933,-15.836615 C -64.78933,-15.836615 -65.88308,-14.741615 -65.88308,-13.390365 L -65.88308,-8.8453649 C -65.88308,-8.8453649 -67.22558,-8.8441149 -67.38808,-8.8541149 C -67.79933,-8.8753649 -69.20058,-8.9366149 -69.99433,-8.8203649 C -71.12933,-8.6528649 -72.11808,-8.3316149 -72.97058,-7.9341149 C -73.41808,-8.4166149 -74.05308,-8.7191149 -74.76183,-8.7191149 L -83.47558,-8.7191149 C -84.82683,-8.7191149 -85.92058,-7.6241149 -85.92058,-6.2741149 L -85.92058,-4.7041149 C -86.09683,-4.8941149 -86.26558,-5.0678649 -86.42558,-5.2228649 C -86.44683,-5.2428649 -86.46933,-5.2641149 -86.49308,-5.2853649 C -87.69308,-6.3628649 -91.34683,-9.6403649 -97.30308,-9.6403649 C -101.20308,-9.6403649 -104.55933,-8.5428649 -107.27933,-6.3753649 C -108.34058,-5.5291149 -109.17558,-4.6203649 -109.82683,-3.7541149 C -111.67808,-7.3516149 -115.60933,-9.7641149 -119.85308,-9.7641149 C -121.74683,-9.7641149 -123.42808,-9.3116149 -124.74933,-8.7841149 L -124.74933,-15.394115 C -124.74933,-16.745365 -125.84433,-17.839115 -127.19433,-17.839115 L -136.42058,-17.839115 C -137.77058,-17.839115 -138.86683,-16.745365 -138.86683,-15.394115 L -138.86683,-5.5916149 C -138.88683,-5.6116149 -138.90933,-5.6328649 -138.93058,-5.6503649 C -143.02433,-9.3591149 -147.84183,-9.3591149 -149.42558,-9.3591149 C -154.23933,-9.3591149 -157.76183,-8.0616149 -160.84308,-5.1491149 C -160.84933,-5.1441149 -160.85683,-5.1378649 -160.86308,-5.1316149 C -161.24308,-4.7641149 -161.77558,-4.1891149 -162.33308,-3.4028649 C -164.57808,-8.7128649 -170.69433,-9.3353649 -175.12933,-9.3341149 C -179.33558,-9.3341149 -183.03933,-8.2891149 -185.50933,-6.4691149 C -185.55558,-6.7878649 -185.47933,-8.1366149 -185.47933,-8.5916149 L -185.47933,-15.161615 C -185.47933,-16.511615 -186.57433,-17.606615 -187.92558,-17.606615 L -197.23308,-17.606615 C -197.43183,-17.606615 -198.03433,-17.562865 -198.15183,-17.562865 L -203.18308,-17.562865 C -203.19933,-17.562865 -203.21683,-17.562865 -203.23308,-17.562865 C -205.85683,-17.509115 -208.62433,-17.257865 -211.07808,-14.874115 C -212.84433,-13.211615 -213.79058,-11.287865 -214.11683,-8.5541149 L -214.67308,-8.5541149 C -216.02308,-8.5541149 -217.11808,-7.4591149 -217.11808,-6.1091149 L -217.11808,0.54838506 C -217.11808,1.8983851 -216.02308,2.9933851 -214.67308,2.9933851 L -214.10933,2.9933851 L -214.10933,17.503385 C -214.10933,18.853385 -213.01558,19.949635 -211.66433,19.949635 L -202.53183,19.949635 C -200.65683,19.949635 -199.75933,17.178385 -199.75933,17.178385 C -199.35183,18.400885 -198.58308,19.949635 -197.23308,19.949635 L -187.92558,19.949635 C -186.65183,19.949635 -185.60683,18.975885 -185.49058,17.732135 C -182.93308,19.722135 -179.43183,20.718385 -175.05558,20.695885 L -174.89683,20.694635 C -167.05058,20.694635 -163.45558,17.345885 -162.01183,15.349635 C -162.00933,15.344635 -162.00558,15.340885 -162.00308,15.337135 C -161.92933,15.233385 -161.85933,15.129635 -161.79183,15.025885 C -161.10683,15.873385 -160.32808,16.653385 -159.46183,17.339635 C -156.67933,19.550885 -153.38058,20.670885 -149.65808,20.670885 C -145.33308,20.670885 -141.55183,19.398385 -138.86683,17.063385 L -138.86683,17.503385 C -138.86683,18.853385 -137.77058,19.949635 -136.42058,19.949635 L -127.01433,19.949635 C -125.66308,19.949635 -124.56933,18.853385 -124.56933,17.503385 L -124.56933,6.7396351 L -124.56933,6.1846351 C -124.57433,3.7958851 -124.51433,3.2946351 -124.19683,3.0321351 C -124.19183,3.0271351 -124.19183,3.0283851 -124.19183,3.0283851 C -124.17558,3.0133851 -124.01683,2.8933851 -123.75183,2.8933851 C -123.58058,2.8933851 -123.41683,2.9483851 -123.35808,2.9808851 C -123.03933,3.2721351 -122.97058,3.3746351 -122.97058,4.9221351 L -122.97058,17.503385 C -122.97058,18.853385 -121.87683,19.949635 -120.52558,19.949635 L -111.11058,19.949635 C -109.75933,19.949635 -108.66433,18.853385 -108.66433,17.503385 L -108.66433,15.944635 C -108.09683,16.564635 -107.46933,17.140885 -106.77558,17.648385 C -106.76683,17.653385 -106.75808,17.660885 -106.74933,17.668385 C -103.13683,20.239635 -99.16683,20.625885 -97.12058,20.625885 C -92.64558,20.625885 -88.71933,19.243385 -85.92058,16.710885 L -85.92058,17.468385 C -85.92058,18.819635 -84.82683,19.914635 -83.47558,19.914635 L -74.54933,19.914635 C -73.19933,19.914635 -72.10433,18.819635 -72.10433,17.468385 L -72.10433,8.2471351 C -72.09683,7.9558851 -72.09558,7.6746351 -72.09433,7.4021351 C -72.08933,6.1646351 -72.06808,5.4346351 -71.68433,4.8208851 C -70.91433,3.5958851 -68.10933,3.0758851 -68.10933,3.0758851 C -67.37558,2.9121351 -65.91558,2.9521351 -65.91558,2.9521351 L -65.97683,7.7158851 C -66.02433,9.2783851 -65.97683,11.023385 -65.86308,11.884635 C -65.56433,14.314635 -64.92933,15.977135 -63.80808,17.265885 C -61.09058,20.443385 -56.59808,20.305885 -55.12058,20.259635 C -55.04183,20.257135 -54.94433,20.255885 -54.91183,20.255885 C -53.41308,20.255885 -52.36558,20.150885 -49.75683,19.512135 C -48.72308,19.258385 -47.98058,18.369635 -47.90183,17.322135 C -47.76183,17.433385 -47.62183,17.542135 -47.47808,17.648385 C -47.46808,17.653385 -47.46058,17.660885 -47.45058,17.668385 C -43.83808,20.239635 -39.86683,20.625885 -37.82308,20.625885 C -32.86308,20.625885 -28.57683,18.928385 -25.75308,15.848385 C -25.12683,15.164635 -24.56933,14.474635 -24.18558,13.815885 C -23.31933,15.140885 -22.30933,16.337135 -21.04683,17.339635 C -18.26433,19.550885 -14.96558,20.670885 -11.24308,20.670885 C -7.0893304,20.670885 -3.4393304,19.497135 -0.77683036,17.335885 L -0.77683036,17.503385 C -0.77683036,18.853385 0.31816964,19.949635 1.6681696,19.949635 L 11.07567,19.949635 C 12.42567,19.949635 13.52067,18.853385 13.52067,17.503385 L 13.52067,6.7396351 L 13.52067,6.1846351 C 13.51567,3.7958851 13.57442,3.2946351 13.89317,3.0321351 C 13.89817,3.0271351 13.89692,3.0283851 13.89692,3.0283851 C 13.91442,3.0133851 14.07317,2.8933851 14.33692,2.8933851 C 14.50942,2.8933851 14.67317,2.9483851 14.73192,2.9808851 C 15.05067,3.2721351 15.11817,3.3746351 15.11817,4.9221351 L 15.11817,17.503385 C 15.11817,18.853385 16.21317,19.949635 17.56442,19.949635 L 26.97942,19.949635 C 27.21692,19.949635 27.44567,19.913385 27.66192,19.849635 C 27.87817,19.913385 28.10817,19.949635 28.34567,19.949635 L 37.75192,19.949635 C 39.10317,19.949635 40.19692,18.853385 40.19692,17.503385 L 40.19692,6.7396351 L 40.19567,6.1846351 C 40.19192,3.7958851 40.25067,3.2946351 40.56942,3.0321351 C 40.57442,3.0271351 40.57317,3.0283851 40.57317,3.0283851 C 40.59067,3.0133851 40.74942,2.8933851 41.01317,2.8933851 C 41.18442,2.8933851 41.34692,2.9471351 41.40692,2.9796351 C 41.51067,3.0783851 41.54317,3.1271351 41.54567,3.1333851 C 41.62192,3.3133851 41.62192,4.1108851 41.62192,4.7508851 L 41.62192,17.503385 C 41.62192,18.853385 42.71692,19.949635 44.06817,19.949635 L 53.48192,19.949635 C 53.74567,19.949635 53.99942,19.905885 54.23817,19.828385 C 54.47442,19.905885 54.72817,19.949635 54.99192,19.949635 L 64.11067,19.949635 C 64.37442,19.949635 64.62817,19.905885 64.86567,19.827135 C 65.10567,19.905885 65.35817,19.949635 65.62317,19.949635 L 74.75567,19.949635 C 76.10692,19.949635 77.20067,18.853385 77.20067,17.503385 L 77.20067,15.679635 L 79.22192,18.824635 C 79.67192,19.525885 80.44692,19.949635 81.27942,19.949635 L 91.58067,19.949635 C 92.48692,19.949635 93.52067,19.200885 93.94567,18.400885 C 94.36942,17.599635 94.29067,16.378385 93.78192,15.628385 z " style="fill:#ffffff;fill-opacity:1;fill-rule:nonzero;stroke:#ffffff;stroke-width:1.10124993;stroke-linecap:butt;stroke-linejoin:miter;stroke-miterlimit:4;stroke-dasharray:none;stroke-opacity:1" id="path9179"/>
    <path d="M 81.25,3 L 81.25,35.90625 L 90.65625,35.90625 L 90.65625,25.125 C 90.65625,22.09625 90.555004,20.648749 91.90625,19.53125 C 92.185,19.2975 92.88125,18.84375 93.90625,18.84375 C 94.605,18.84375 95.425002,19.064999 95.9375,19.53125 C 97.01,20.50875 97.15625,21.342501 97.15625,23.3125 L 97.15625,35.90625 L 106.5625,35.90625 L 106.5625,21.0625 C 106.5625,19.525 106.6075,18.24 106.09375,16.75 C 104.88375,13.255 101.26125,11.0625 97.8125,11.0625 C 94.8775,11.0625 92.463746,12.44 91.53125,13.09375 C 91.065,13.465 90.888747,13.595 90.46875,13.96875 L 90.46875,3 L 81.25,3 z M 20.4375,3.21875 L 20.4375,9.8125 L 29.75,9.8125 L 29.75,3.21875 L 20.4375,3.21875 z M 14.5,3.28125 C 12.16875,3.3275 10.1,3.5124998 8.28125,5.28125 C 6.8375,6.6325 5.8749999,8.2724997 5.875,12.28125 L 3,12.28125 L 3,18.9375 L 6,18.9375 L 6,35.90625 L 15.125,35.90625 L 15.125,18.9375 L 19.53125,18.9375 L 19.53125,12.28125 L 15.125,12.28125 C 15.125,11.44125 15.005,10.685 15.84375,10.125 C 16.4025,9.75375 17.26625,9.6562502 17.40625,9.65625 L 19.53125,9.65625 L 19.53125,3.28125 L 14.5,3.28125 z M 120.375,11.1875 C 112.78875,11.1875 109.43375,15.998749 108.34375,18.65625 C 107.48,20.7525 107.375,23.301249 107.375,24.09375 C 107.375,27.32375 109.16375,31.732501 112.34375,34.0625 C 115.615,36.3925 119.245,36.562501 120.5625,36.5625 C 122.06125,36.5625 127.26874,36.46 130.8125,32.59375 C 132.31125,30.9625 132.82125,29.245001 133.09375,28.3125 L 124.3125,28.3125 C 123.7675,29.01125 122.92125,30.25 120.96875,30.25 C 118.42375,30.25 117.28375,28.682501 116.875,27.75 C 116.73875,27.42375 116.42125,27.15125 116.375,26.40625 L 133.40625,26.25 C 133.40625,25.97 133.4375,25.638751 133.4375,25.3125 C 133.4375,19.7675 131.1675,16.52125 129.53125,14.9375 C 128.0775,13.6325 125.145,11.1875 120.375,11.1875 z M 68.25,11.46875 C 63.9525,11.46875 61.016248,12.655 58.5,15.03125 C 57.14875,16.33625 55.031249,19.3425 55.03125,24.1875 C 55.03125,27.8225 56.783749,31.482498 59.71875,33.8125 C 63.12,36.515 66.695,36.625 68,36.625 C 74.89625,36.625 80.833751,32.83875 80.40625,25.5625 L 71.59375,25.75 C 71.5475,25.9825 71.498751,27.12875 71.21875,27.875 C 70.94,28.57375 70.615,29.968751 68.0625,29.96875 C 66.03,29.96875 64.250001,26.611249 64.25,24 C 64.20375,23.72125 64.176247,21.225 65.15625,19.6875 C 66.18,18.19625 67.39375,18.000001 68.09375,18 C 69.56,18 70.972498,19.07125 71.59375,21.125 L 79.96875,20.90625 C 79.96875,20.3475 79.948749,18.959999 79.15625,17.375 C 78.41125,15.8375 77.4875,14.91875 77.09375,14.5625 C 73.725,11.5075 69.695002,11.46875 68.25,11.46875 z M 42.53125,11.5 C 37.5875,11.5 33.991251,13.07375 32.40625,15.03125 C 31.14875,16.66125 30.65625,17.4625 30.65625,19.25 C 30.65625,20.3675 30.716249,23.017501 33.40625,24.8125 C 35.2125,26.01625 37.150002,26.363749 41.75,27 C 43.4875,27.24 44.41125,27.23625 45.0625,27.75 C 45.48375,28.07625 45.625001,28.751251 45.625,28.9375 C 45.625,29.89 44.770001,31 42.90625,31 C 40.71625,31 39.68625,29.308749 39.5,28.46875 C 39.4525,28.23625 39.40625,27.858749 39.40625,27.8125 L 30.5625,28.03125 C 30.5625,29.10375 30.747501,31.37125 32.84375,33.46875 C 36.2,36.82375 41.57,36.625 42.78125,36.625 C 48.74625,36.625 52.103749,34.502499 53.6875,32.3125 C 54.85125,30.6825 54.875002,28.965001 54.875,28.21875 C 54.875,23.3725 50.930001,21.5775 49.53125,21.15625 C 47.855,20.5975 46.1975,20.333749 44.46875,20.03125 C 43.42,19.8475 40.183751,19.7775 39.75,19.03125 C 39.6075,18.78625 39.624999,18.607499 39.625,18.46875 C 39.57875,17.49 41.218748,17.062499 41.21875,17.0625 C 41.45125,17.01625 41.955002,16.937501 42.1875,16.9375 C 42.37375,16.9375 43.909998,16.881249 44.65625,18 C 44.93625,18.42 45.203749,19.111251 45.25,19.25 L 53.65625,19.03125 C 53.61,17.7725 53.342501,16.59 53.15625,16.125 C 51.99125,13.1425 49.053749,11.5 42.53125,11.5 z M 148.875,11.9375 C 148.50406,11.939844 148.2025,11.975 148.03125,12 C 145.13624,12.42875 143.5125,14.13 142.90625,14.875 L 142.90625,12.125 L 134.1875,12.125 L 134.1875,35.84375 L 143.125,35.84375 L 143.125,26.625 C 143.17125,24.992499 142.97375,23.3975 143.90625,21.90625 C 144.93,20.275 147.82625,19.0925 149.84375,19.03125 C 149.94874,19.0275 150.0575,19.02875 150.15625,19.03125 L 150.15625,11.96875 C 149.69375,11.943125 149.24594,11.935156 148.875,11.9375 z M 20.4375,12.28125 L 20.4375,35.90625 L 29.75,35.90625 L 29.75,12.28125 L 20.4375,12.28125 z M 119.8125,17.5 C 119.98063,17.487637 120.13656,17.5 120.25,17.5 C 121.0225,17.5 121.3375,17.68875 121.65625,17.78125 C 123.745,18.5275 124.065,20.396251 124.15625,21.09375 L 116.3125,21.21875 C 116.4025,20.6125 116.58875,19.25875 117.90625,18.28125 C 118.62156,17.687812 119.30812,17.53709 119.8125,17.5 z " transform="translate(-217.6687,-18.38974)" style="fill:#ed1c24;fill-opacity:1;fill-rule:nonzero;stroke:none" id="path9181"/>
    <path d="M 219.34375,3 L 219.34375,35.90625 L 228.75,35.90625 L 228.75,25.125 C 228.75,22.09625 228.64874,20.648749 230,19.53125 C 230.28,19.2975 230.975,18.84375 232,18.84375 C 232.7,18.84375 233.51876,19.064999 234.03125,19.53125 C 235.10375,20.50875 235.21875,21.342501 235.21875,23.3125 L 235.21875,35.90625 L 244.65625,35.90625 L 244.65625,21.0625 C 244.65625,19.525 244.7,18.24 244.1875,16.75 C 242.975,13.255 239.355,11.0625 235.90625,11.0625 C 232.97,11.0625 230.55625,12.44 229.625,13.09375 C 229.15875,13.465 228.98249,13.595 228.5625,13.96875 L 228.5625,3 L 219.34375,3 z M 272.65625,3 L 272.65625,9.53125 L 281.78125,9.53125 L 281.78125,3 L 272.65625,3 z M 283.28125,3 L 283.28125,35.90625 L 292.4375,35.90625 L 292.4375,29.53125 L 293.875,28 L 298.9375,35.90625 L 309.90625,35.90625 L 300,21.3125 L 308.6875,12.0625 L 297.8125,12.0625 L 292.4375,18.59375 L 292.4375,3 L 283.28125,3 z M 154.21875,5 L 154.21875,12 L 151.3125,12 L 151.3125,18.90625 L 154.21875,18.90625 L 154.125,26.15625 C 154.07875,27.64625 154.12625,29.26875 154.21875,29.96875 C 154.5,32.25125 155.06625,33.31875 155.71875,34.0625 C 157.8625,36.58 161.95875,36.187501 162.75,36.1875 C 164.00875,36.1875 164.87374,36.1375 167.34375,35.53125 L 167.34375,28.6875 C 166.365,28.87375 165.99,28.999999 165.5,29 C 163.605,29 163.37501,27.650001 163.375,26.71875 L 163.375,18.90625 L 167.34375,18.90625 L 167.34375,12 L 163.375,12 L 163.375,5 L 154.21875,5 z M 179.65625,11.1875 C 172.07,11.1875 168.71501,15.998749 167.625,18.65625 C 166.7625,20.7525 166.65625,23.301249 166.65625,24.09375 C 166.65625,27.32375 168.445,31.732501 171.625,34.0625 C 174.895,36.3925 178.52624,36.562501 179.84375,36.5625 C 181.3425,36.5625 186.58124,36.46 190.125,32.59375 C 191.62375,30.9625 192.1025,29.245001 192.375,28.3125 L 183.625,28.3125 C 183.08,29.01125 182.20376,30.25 180.25,30.25 C 177.70625,30.25 176.565,28.682501 176.15625,27.75 C 176.02,27.42375 175.70125,27.2775 175.65625,26.53125 L 192.6875,26.375 C 192.6875,26.095 192.75,25.795001 192.75,25.46875 C 192.75,20.8675 190.48,16.6475 188.84375,15.0625 C 187.39125,13.75875 184.425,11.1875 179.65625,11.1875 z M 262.59375,11.25 C 259.65874,11.25 257.245,12.535 256.3125,13.1875 C 255.84626,13.56 255.29375,13.8475 254.875,14.21875 L 254.875,12.0625 L 246,12.0625 L 246,35.90625 L 255.40625,35.90625 L 255.40625,25.125 C 255.40625,22.09625 255.33625,20.64875 256.6875,19.53125 C 256.96749,19.297499 257.6625,18.84375 258.6875,18.84375 C 259.38749,18.84375 260.175,19.065 260.6875,19.53125 C 261.75875,20.508749 261.75,21.3425 261.75,23.3125 L 261.75,35.90625 L 271.15625,35.90625 L 271.15625,21.0625 C 271.15624,19.525001 271.2,18.24 270.6875,16.75 C 269.47626,13.255 266.04375,11.25 262.59375,11.25 z M 206.65625,11.46875 C 202.3575,11.46875 199.42375,12.655 196.90625,15.03125 C 195.555,16.33625 193.4375,19.3425 193.4375,24.1875 C 193.4375,27.8225 195.21999,31.482498 198.15625,33.8125 C 201.5575,36.515 205.13251,36.625 206.4375,36.625 C 213.33375,36.625 219.24125,32.83875 218.8125,25.5625 L 210,25.75 C 209.95375,25.9825 209.90375,27.12875 209.625,27.875 C 209.345,28.57375 209.02126,29.968751 206.46875,29.96875 C 204.43625,29.96875 202.65625,26.611249 202.65625,24 C 202.61,23.72125 202.615,21.225 203.59375,19.6875 C 204.61875,18.19625 205.83126,18.000001 206.53125,18 C 207.9975,18 209.3775,19.07125 210,21.125 L 218.375,20.90625 C 218.375,20.3475 218.38625,18.959999 217.59375,17.375 C 216.84875,15.8375 215.89375,14.91875 215.5,14.5625 C 212.13125,11.5075 208.10001,11.46875 206.65625,11.46875 z M 272.65625,12.125 L 272.65625,35.90625 L 281.78125,35.90625 L 281.78125,12.125 L 272.65625,12.125 z M 179.5625,17.625 C 180.335,17.625 180.65125,17.84375 180.96875,17.9375 C 183.05875,18.68375 183.37875,20.396251 183.46875,21.09375 L 175.59375,21.21875 C 175.68375,20.6125 175.86999,19.41625 177.1875,18.4375 C 178.14125,17.645 179.10751,17.625 179.5625,17.625 z " transform="translate(-217.6687,-18.38974)" style="fill:#0071bc;fill-opacity:1;fill-rule:nonzero;stroke:none" id="path9191"/>
    <path d="M 167.95067,-3.1441149 C 167.95067,-5.3591149 169.71692,-7.1253649 171.95192,-7.1253649 C 174.18817,-7.1253649 175.95442,-5.3591149 175.95442,-3.1441149 C 175.95442,-0.92911494 174.18817,0.83713506 171.95192,0.83713506 C 169.71692,0.83713506 167.95067,-0.92911494 167.95067,-3.1441149 z M 175.34192,-3.1441149 C 175.34192,-5.0228649 173.78067,-6.5141149 171.95192,-6.5141149 C 170.12442,-6.5141149 168.56317,-5.0228649 168.56317,-3.1441149 C 168.56317,-1.2666149 170.12442,0.22463506 171.95192,0.22463506 C 173.78067,0.22463506 175.34192,-1.2666149 175.34192,-3.1441149 z M 173.85067,-0.98911494 L 173.11567,-0.98911494 L 171.80942,-3.0016149 L 171.07442,-3.0016149 L 171.07442,-0.98911494 L 170.46192,-0.98911494 L 170.46192,-5.3491149 L 172.36067,-5.3491149 C 173.14692,-5.3491149 173.91192,-5.1353649 173.91192,-4.1953649 C 173.91192,-3.3378649 173.30942,-3.0228649 172.53442,-3.0016149 L 173.85067,-0.98911494 z M 171.80942,-3.6141149 C 172.35067,-3.6141149 173.30067,-3.5116149 173.30067,-4.2066149 C 173.30067,-4.6553649 172.70817,-4.7378649 172.23817,-4.7378649 L 171.07442,-4.7378649 L 171.07442,-3.6141149 L 171.80942,-3.6141149" style="fill:#020506;fill-opacity:1;fill-rule:nonzero;stroke:none" id="path9209"/>
    <path d="M 102.14192,19.949635 L 165.22942,19.949635 L 165.22942,-8.7841149 L 102.14192,-8.7841149 L 102.14192,19.949635 z " style="fill:#ffffff;fill-opacity:1;fill-rule:nonzero;stroke:#ffffff;stroke-width:1.10124993;stroke-linecap:butt;stroke-linejoin:miter;stroke-miterlimit:4;stroke-dasharray:none;stroke-opacity:1" id="path9211"/>
    <path d="M 104.33692,17.503385 L 163.01442,17.503385 L 163.01442,-6.5141149 L 104.33692,-6.5141149 L 104.33692,17.503385 z " style="fill:#020505;fill-opacity:1;fill-rule:nonzero;stroke:none" id="path9213"/>
    <path d="M 152.15942,3.2146351 C 152.75942,2.8833851 153.32192,2.4721351 153.89567,2.0758851 L 155.56442,0.80088506 L 157.51317,-0.88786494 C 158.13317,-1.4603649 158.72317,-2.0566149 159.31317,-2.6266149 L 159.31317,2.1558851 C 157.98567,3.3158851 156.67067,4.4383851 155.24942,5.3933851 C 156.70692,6.4321351 158.04942,7.4221351 159.38192,8.6471351 L 159.38192,13.364635 C 157.21817,11.219635 154.74067,9.1746351 152.19317,7.6183851 C 144.11192,13.043385 133.63817,15.294635 123.42942,13.095885 C 117.57067,11.845885 112.20067,9.3283851 107.43192,5.4596351 C 113.33817,0.61963506 120.16692,-2.1566149 127.77817,-2.9266149 L 130.50567,-3.0903649 C 138.59692,-3.1953649 145.80442,-0.97661494 152.15942,3.2146351" style="fill:#ffffff;fill-opacity:1;fill-rule:nonzero;stroke:none" id="path9215"/>
    <path d="M 152.16692,4.5833851 C 154.20942,3.3071351 156.20192,1.9133851 158.04442,0.22088506 C 158.11817,0.18963506 158.12317,0.16213506 158.12317,0.16213506 L 158.12317,1.8446351 C 156.63317,3.1521351 155.00192,4.2633851 153.36442,5.4033851 C 153.73692,5.7196351 154.17442,5.9358851 154.56942,6.2308851 L 155.82817,7.1058851 L 157.86067,8.6921351 C 157.98567,8.7883851 158.09192,8.8833851 158.16567,9.0258851 L 158.16567,10.597135 C 156.32317,8.9358851 154.27442,7.4808851 152.18442,6.1933851 C 147.21567,9.6471351 141.66192,11.793385 135.56567,12.520885 L 132.73817,12.732135 C 129.15817,12.852135 125.63567,12.520885 122.39317,11.672135 C 117.68692,10.487135 113.31692,8.4446351 109.35317,5.4983851 C 109.45817,5.3308851 109.65817,5.1708851 109.83192,5.0546351 C 117.11317,-0.18536494 125.88817,-2.7153649 135.38067,-1.6991149 C 141.56067,-1.0403649 147.12317,1.1671351 152.16692,4.5833851 z M 134.45942,-0.50661494 C 125.89442,-1.2191149 118.18942,1.0183851 111.57192,5.4596351 C 116.84692,8.9971351 122.78192,10.975885 129.33192,11.425885 C 137.35942,11.793385 144.64567,9.6308851 150.91567,5.4083851 C 146.00942,2.0921351 140.50317,0.099635062 134.45942,-0.50661494" style="fill:#ed1c24;fill-opacity:1;fill-rule:nonzero;stroke:none" id="path9217"/>
    <path d="M 338.4375,20.15625 C 337.04933,20.304898 335.93781,21.495157 335.1875,22.625 C 334.78125,22.705 334.24874,22.502501 333.90625,22.78125 C 333.61625,22.9725 333.41625,23.2625 333.40625,23.59375 C 333.54875,24.02625 334.02251,23.738749 334.375,23.84375 L 334.40625,23.875 C 334.15375,24.34 333.92499,24.8125 333.6875,25.28125 C 333.6575,25.43 333.5825,25.5975 333.71875,25.71875 C 334.04,25.86625 334.55376,25.86625 334.875,25.71875 C 335.40125,25.17 335.63501,24.449999 336.09375,23.84375 C 336.79375,23.8225 337.57126,23.79125 338.28125,23.84375 C 338.36,23.8975 338.33875,24.013749 338.3125,24.09375 C 338.1125,24.505 337.7975,25.106251 338.1875,25.53125 C 338.7025,25.95875 339.5725,25.8675 340.15625,25.625 C 341.42,25.06125 342.60125,24.31 343.8125,23.625 C 344.02875,23.54 343.97875,23.821251 344.03125,23.9375 C 344.0575,24.18625 344.02876,24.451251 343.8125,24.625 C 343.68125,24.7525 343.50749,24.646251 343.34375,24.65625 C 343.12875,24.605 342.98126,24.43375 342.75,24.40625 C 342.51875,24.50625 342.33874,24.78375 342.28125,25.03125 C 342.24375,25.3175 342.26374,25.5925 342.5,25.78125 C 343.2425,26.15625 344.18624,25.925 344.78125,25.40625 C 345.4025,24.90625 345.565,24.166251 345.375,23.40625 C 345.29625,23.07 345.075,22.65375 345.375,22.34375 C 345.44875,22.2 345.32,22.084999 345.21875,22 C 344.90375,21.81 344.48251,21.95125 344.15625,22.03125 C 342.6725,22.8225 341.235,23.752501 339.71875,24.46875 L 339.59375,24.46875 C 339.7525,24.105 339.91999,23.766251 340.09375,23.40625 C 340.14625,23.26625 340.14501,23.121249 340.125,22.96875 C 340.11375,22.83125 339.97999,22.745 339.875,22.6875 L 337.125,22.65625 L 336.90625,22.625 C 337.01125,22.36625 337.24874,22.157499 337.4375,21.9375 C 337.8225,21.49875 338.3275,21.35875 338.90625,21.4375 C 339.22625,21.195 339.39625,20.80625 339.34375,20.40625 C 339.30625,20.275 339.18249,20.1875 339.0625,20.15625 C 338.8525,20.131719 338.63581,20.135015 338.4375,20.15625 z M 353.25,20.34375 C 352.89615,20.327812 352.52281,20.472812 352.25,20.6875 C 351.9975,21.0025 351.83499,21.34 351.65625,21.6875 C 351.08375,22.78375 349.94374,23.685 348.84375,24.1875 C 348.385,24.38625 347.9375,24.641251 347.40625,24.65625 C 347.2325,24.59875 347.22876,24.40875 347.21875,24.25 C 347.28625,24.07625 347.44124,23.9025 347.59375,23.78125 C 347.93125,23.5175 348.41249,23.76125 348.78125,23.625 C 349.1025,23.3975 349.22375,23.01625 349.21875,22.625 C 349.1975,22.4975 349.10499,22.442501 349,22.40625 C 348.21,22.2575 347.44374,22.47 346.8125,22.84375 C 346.1225,23.22875 345.61875,23.975 345.71875,24.78125 C 345.85,25.28875 346.3125,25.67125 346.8125,25.78125 C 348.04375,25.97625 349.09,25.403751 350.03125,24.75 L 350.0625,24.78125 C 350.02625,25.07625 349.695,25.466249 350.03125,25.71875 C 350.3525,25.89875 350.81,25.800001 351.125,25.65625 C 351.87875,25.1875 352.575,24.568749 353.34375,24.125 C 353.4225,24.05625 353.54126,24.133751 353.59375,24.21875 C 353.715,24.75 353.68875,25.3275 354.0625,25.75 C 354.7425,26.1925 355.4625,25.66125 356.0625,25.375 C 356.21,25.32875 356.35749,25.17125 356.5,25.15625 C 356.96875,25.82125 357.70124,25.958749 358.46875,25.875 C 359.35875,25.64875 360.19376,25.313749 361,24.875 C 361.23125,24.76 361.46124,24.5625 361.6875,24.5 C 361.56125,24.87875 361.15875,25.27 361.40625,25.6875 C 361.56375,25.77125 361.76249,25.7975 361.96875,25.78125 C 362.515,25.86625 362.75375,25.3175 362.96875,24.9375 C 363.4275,24.00625 364.39126,23.636251 365.375,23.65625 C 365.57625,23.5975 365.69249,23.397499 365.75,23.21875 C 365.84,22.96125 365.81,22.612501 365.625,22.4375 C 365.0625,22.39375 364.55126,22.482499 364.09375,22.6875 C 363.8725,22.77625 363.7,22.9875 363.46875,23.0625 C 363.39,22.90375 363.39624,22.71 363.28125,22.5625 C 363.17,22.45875 362.99125,22.431249 362.84375,22.46875 C 361.97,23.005 361.11875,23.64125 360.1875,24.0625 C 359.57125,24.3425 358.965,24.638751 358.28125,24.75 C 358.12875,24.72375 357.97999,24.67875 357.90625,24.53125 C 358.70625,24.3475 359.60624,23.832499 359.90625,23 C 359.975,22.7 359.935,22.351251 359.65625,22.15625 C 359.325,21.86125 358.73875,21.87875 358.34375,22.03125 C 357.54875,22.16875 356.86749,22.90125 356.53125,23.625 C 356.25125,24.11375 355.71374,24.39875 355.1875,24.5 C 354.8925,24.32625 354.95376,23.95125 354.875,23.65625 C 354.775,23.32875 354.81,22.923749 354.5625,22.65625 C 354.42,22.56125 354.28251,22.498751 354.09375,22.53125 C 353.415,22.66375 352.84874,23.06875 352.28125,23.46875 L 352.1875,23.46875 C 352.4075,22.94125 352.73126,22.468749 353,21.96875 C 353.22625,21.49375 353.66624,21.094999 353.6875,20.53125 L 353.59375,20.40625 C 353.48188,20.365313 353.36795,20.349063 353.25,20.34375 z M 358.59375,22.96875 L 358.6875,22.96875 C 358.60875,23.26375 358.285,23.505 358,23.59375 C 358.0275,23.305 358.31999,23.084999 358.59375,22.96875 z " transform="translate(-217.6687,-18.38974)" style="fill:#020505;fill-opacity:1;fill-rule:nonzero;stroke:none" id="path9219"/>
    <path d="M 124.07817,2.2083851 C 124.24067,2.4983851 124.20442,2.8996351 124.04567,3.1833851 C 123.79942,3.5358851 123.36192,3.7583851 122.90317,3.6796351 C 122.59817,3.6108851 122.33067,3.3883851 122.24067,3.0833851 C 122.17192,2.6508851 122.37692,2.2346351 122.74067,2.0246351 C 123.13567,1.8121351 123.78817,1.7496351 124.07817,2.2083851" style="fill:#020505;fill-opacity:1;fill-rule:nonzero;stroke:none" id="path9221"/>
  </g>
</svg>